<?xml version="1.0" encoding="UTF-8" standalone="no"?><!DOCTYPE svg PUBLIC "-//W3C//DTD SVG 1.1//EN" "http://www.w3.org/Graphics/SVG/1.1/DTD/svg11.dtd"><svg width="100%" height="100%" viewBox="0 0 64 64" version="1.1" xmlns="http://www.w3.org/2000/svg" xmlns:xlink="http://www.w3.org/1999/xlink" xml:space="preserve" xmlns:serif="http://www.serif.com/" style="fill-rule:evenodd;clip-rule:evenodd;stroke-linejoin:round;stroke-miterlimit:2;"><path d="M9.643,55.445c0.621,0.48 2.41,-2.615 9.153,-3.027c7.218,-0.444 15.207,5.297 26.15,5.297c9.701,-0 14.726,-4.749 14.382,-5.506c-0.231,-0.503 -4.06,-1.427 -8.464,-3.715c-5.297,-2.751 -10.875,-5.506 -15.139,-11.7c-2.733,-3.965 -4.681,-8.532 -1.994,-12.112c2.682,-3.58 9.497,-1.926 9.497,-1.926l-9.289,-10.046l-17.685,4.822l-8.949,22.434l0.965,11.423l1.373,4.056Z" style="fill:url(#_Radial1);fill-rule:nonzero;"/><path d="M29.852,19.362c0,0 2.162,0.689 5.057,2.198c4.817,2.515 7.735,6.471 10.712,6.715c3.09,0.25 4.672,-1.531 3.996,-5.247c-0.629,-3.466 -5.745,-7.535 -5.745,-7.535c-0,-0 4.672,0.879 4.672,-1.799c-0,-2.751 -2.52,-4.074 -6.485,-5.438c-2.641,-0.906 -9.746,-2.918 -19.271,0.689c-4.096,1.55 -9.099,4.413 -12.896,9.901c-4.966,7.177 -5.972,16.512 -5.03,23.599c1.142,8.559 4.704,12.972 4.79,13.009c0.086,0.036 0.553,-10.064 4.536,-14.446c3.394,-3.734 6.865,-2.202 10.988,-2.406c4.862,-0.24 7.032,-5.261 3.321,-9.09c-3.185,-3.289 -8.464,-2.995 -8.464,-2.995c-0,0 1.749,-0.698 5.07,-0.997c3.816,-0.349 4.568,-2.564 4.84,-3.394c0.602,-1.83 -0.091,-2.764 -0.091,-2.764Z" style="fill:#1b6da4;fill-rule:nonzero;"/><path d="M20.287,19.448c-0.254,-1.495 4.15,-2.845 8.763,-2.12c7.178,1.128 12.86,7.676 15.27,8.632c3.553,1.414 4.804,-1.491 3.023,-4.636c-1.835,-3.249 -6.693,-6.013 -6.512,-7.086c0.327,-1.908 5.302,0.996 5.606,-1.124c0.203,-1.405 -3.512,-3.426 -7.042,-4.328c-2.841,-0.725 -8.809,-1.617 -17.056,1.976c-10.721,4.681 -15.356,13.993 -16.122,23.748c-0.725,9.253 2.81,16.15 2.81,16.15c-0,-0 0.24,-6.906 3.702,-10.708c2.528,-2.773 5.772,-3.815 9.293,-3.144c5.873,1.123 8.433,-3.122 5.61,-6.19c-1.849,-2.007 -4.219,-2.633 -6.67,-2.714c-4.237,-0.136 -6.516,1.282 -6.638,0.802c-0.182,-0.73 2.116,-2.42 5.029,-3.634c3.834,-1.595 8.46,-0.503 9.185,-3.711c0.354,-1.564 -0.53,-2.42 -3.058,-2.606c-3.195,-0.231 -5.175,0.802 -5.193,0.693Z" style="fill:#fff;fill-rule:nonzero;"/><g id="emoji_u1f30a.svg"></g><defs><radialGradient id="_Radial1" cx="0" cy="0" r="1" gradientUnits="userSpaceOnUse" gradientTransform="matrix(51.5236,0,0,51.5236,30.1202,2.3634)"><stop offset="0" style="stop-color:#45d6f0;stop-opacity:1"/><stop offset="0.42" style="stop-color:#45d6f0;stop-opacity:1"/><stop offset="0.52" style="stop-color:#41cde9;stop-opacity:1"/><stop offset="0.67" style="stop-color:#37b4d7;stop-opacity:1"/><stop offset="0.87" style="stop-color:#278bba;stop-opacity:1"/><stop offset="1" style="stop-color:#1b6da4;stop-opacity:1"/></radialGradient></defs></svg>